<?xml version="1.0" encoding="utf-8"?>
<svg viewBox="0 0 348 348" fill="none" xmlns="http://www.w3.org/2000/svg">
  <defs/>
  <path d="M5.079 5.776h336.913v337.67H5.08z" stroke-width="2" stroke="#000"/>
  <path d="M282.734 40.554c0-8.376 6.966-15.165 15.56-15.165 4.126 0 8.084 1.597 11.001 4.441 2.918 2.844 4.558 6.702 4.558 10.724 0 8.376-6.966 15.165-15.56 15.165-8.593 0-15.559-6.79-15.559-15.165z" stroke-width="2" stroke="#000"/>
  <rect x="32.272" y="36.255" width="222.906" height="90.66" style="stroke: rgb(0, 0, 0);"/>
  <rect x="31.44" y="154.362" width="227.065" height="37.428" style="stroke: rgb(0, 0, 0);"/>
  <rect x="278.467" y="153.53" width="49.904" height="39.092" style="stroke: rgb(0, 0, 0);"/>
  <ellipse style="stroke: rgb(0, 0, 0);" cx="32.687" cy="225.891" rx="14.555" ry="14.14"/>
  <ellipse style="stroke: rgb(0, 0, 0);" cx="71.363" cy="226.722" rx="14.555" ry="14.14"/>
  <ellipse style="stroke: rgb(0, 0, 0);" cx="108.791" cy="226.723" rx="14.555" ry="14.14"/>
  <ellipse style="stroke: rgb(0, 0, 0);" cx="145.388" cy="227.555" rx="14.555" ry="14.14"/>
  <ellipse style="stroke: rgb(0, 0, 0);" cx="180.46" cy="227.278" rx="14.555" ry="14.14"/>
  <ellipse style="stroke: rgb(0, 0, 0);" cx="216.78" cy="226.793" rx="14.555" ry="14.14"/>
  <ellipse style="stroke: rgb(0, 0, 0);" cx="250.049" cy="226.099" rx="14.555" ry="14.14"/>
  <ellipse style="stroke: rgb(0, 0, 0);" cx="284.012" cy="226.099" rx="14.555" ry="14.14"/>
  <ellipse style="stroke: rgb(0, 0, 0);" cx="33.172" cy="263.5" rx="14.555" ry="14.14"/>
  <ellipse style="stroke: rgb(0, 0, 0);" cx="70.6" cy="263.501" rx="14.555" ry="14.14"/>
  <ellipse style="stroke: rgb(0, 0, 0);" cx="107.197" cy="264.333" rx="14.555" ry="14.14"/>
  <ellipse style="stroke: rgb(0, 0, 0);" cx="142.269" cy="264.056" rx="14.555" ry="14.14"/>
  <ellipse style="stroke: rgb(0, 0, 0);" cx="178.589" cy="263.571" rx="14.555" ry="14.14"/>
  <ellipse style="stroke: rgb(0, 0, 0);" cx="211.858" cy="262.877" rx="14.555" ry="14.14"/>
  <ellipse style="stroke: rgb(0, 0, 0);" cx="33.172" cy="301.621" rx="14.555" ry="14.14"/>
  <ellipse style="stroke: rgb(0, 0, 0);" cx="70.6" cy="301.622" rx="14.555" ry="14.14"/>
  <ellipse style="stroke: rgb(0, 0, 0);" cx="107.197" cy="302.454" rx="14.555" ry="14.14"/>
  <ellipse style="stroke: rgb(0, 0, 0);" cx="142.269" cy="302.177" rx="14.555" ry="14.14"/>
  <ellipse style="stroke: rgb(0, 0, 0);" cx="178.589" cy="301.692" rx="14.555" ry="14.14"/>
  <ellipse style="stroke: rgb(0, 0, 0);" cx="211.858" cy="300.998" rx="14.555" ry="14.14"/>
  <ellipse style="stroke: rgb(0, 0, 0);" cx="248.039" cy="263.499" rx="14.555" ry="14.14"/>
  <ellipse style="stroke: rgb(0, 0, 0);" cx="284.08" cy="263.5" rx="14.555" ry="14.14"/>
  <ellipse style="stroke: rgb(0, 0, 0);" cx="318.597" cy="264.333" rx="14.555" ry="14.14"/>
  <ellipse style="stroke: rgb(0, 0, 0);" cx="246.931" cy="301.485" rx="14.555" ry="14.14"/>
  <ellipse style="stroke: rgb(0, 0, 0);" cx="282.556" cy="301.691" rx="14.555" ry="14.14"/>
  <ellipse style="stroke: rgb(0, 0, 0);" cx="315.132" cy="301.691" rx="14.555" ry="14.14"/>
  <ellipse style="stroke: rgb(0, 0, 0);" cx="319.36" cy="226.87" rx="14.555" ry="14.14"/>
</svg>